<svg width="510" height="510" viewBox="0 0 510 510" fill="none" xmlns="http://www.w3.org/2000/svg">
<circle cx="255" cy="255" r="255" fill="#020617"/>
<path d="M252.873 361.5H57.5869L57.4414 361.253L8 277H115.973L91.9727 238.5H156.304L252.873 210.837V361.5ZM156.511 239.48L156.443 239.5H93.7734L117.774 278H9.74609L58.1602 360.5H251.873V212.163L156.511 239.48Z" fill="url(#paint0_linear_6_3)"/>
<path d="M156.511 239.48L156.443 239.5H93.7734L117.774 278H9.74609L58.1602 360.5H251.873V212.163L156.511 239.48Z" fill="url(#paint1_linear_6_3)"/>
<path d="M253 206.373V154.5V148.5H230V177.5H203V221.169L253 206.373Z" fill="#22D3EE"/>
<path d="M201 207.5V222.367L200.649 222.478L184.649 227.478L184 227.68V207.5H201ZM185 226.319L200 221.632V208.5H185V226.319Z" fill="#22D3EE"/>
<path d="M185 226.319L200 221.632V208.5H185V226.319Z" fill="#22D3EE"/>
<path d="M181 209V227.372L180.644 227.479L160 233.672V209H181ZM161 232.328L180 226.628V210H161V232.328Z" fill="#22D3EE"/>
<path d="M161 232.328L180 226.628V210H161V232.328Z" fill="#22D3EE"/>
<path d="M222 134.5V144.5H253V115.5H246V134.5H222Z" fill="#22D3EE"/>
<path d="M248.5 97H249.5V49H257.5V97H253.5V113H234V105.5H248.5V97Z" fill="#22D3EE"/>
<path d="M255.5 359C255.5 359 449 359 449.5 359C450 359 502.747 276.247 502.5 276C502.253 275.753 436.5 276 436.5 276M280 175C280 175 311 174.5 311.5 175C312 175.5 311 203.5 311.5 204C312 204.5 354 203.5 354.5 204C355 204.5 354 234.5 354.5 235C355 235.5 462.5 235 462.5 235" stroke="#67E8F9" stroke-width="8"/>
<path d="M277 148.5H253V154.5H273.5L277 157V148.5Z" fill="#22D3EE"/>
<path d="M279 96.5V111.5L264 117V134.5H284V144.5H253V115.5L273 108.5V96.5H279ZM270 97V107.36L253.5 113V97H270Z" fill="#22D3EE"/>
<circle cx="303.5" cy="314" r="25" fill="#22D3EE" fill-opacity="0.8"/>
<circle cx="377.5" cy="314" r="25" fill="#22D3EE" fill-opacity="0.8"/>
<circle cx="303.5" cy="248" r="25" fill="#22D3EE" fill-opacity="0.8"/>
<defs>
<linearGradient id="paint0_linear_6_3" x1="8.00002" y1="286.168" x2="252.873" y2="286.168" gradientUnits="userSpaceOnUse">
<stop stop-color="#020617"/>
<stop offset="1" stop-color="#0891B2"/>
</linearGradient>
<linearGradient id="paint1_linear_6_3" x1="8.00002" y1="286.168" x2="252.873" y2="286.168" gradientUnits="userSpaceOnUse">
<stop stop-color="#020617"/>
<stop offset="1" stop-color="#0891B2"/>
</linearGradient>
</defs>
</svg>
